<svg width="15" height="15" viewBox="0 0 15 15" fill="none" xmlns="http://www.w3.org/2000/svg">
<path d="M9.69585 3.80149C9.69575 2.51421 8.58935 1.48403 7.27885 1.61106H7.27592C6.23462 1.70822 5.29817 2.78947 5.29448 3.9216H9.69585V3.80149ZM4.82768 5.52121C3.49823 5.52121 2.96359 5.83508 2.73784 6.10324C2.50577 6.37909 2.40695 6.83185 2.48784 7.5759L2.98784 11.5759L2.98881 11.5896C3.05333 12.1916 3.18176 12.5365 3.4312 12.7644C3.68801 12.9988 4.23666 13.2546 5.49467 13.2546H9.49565C10.7538 13.2546 11.3024 12.9988 11.5591 12.7644C11.8085 12.5365 11.936 12.1915 12.0005 11.5896L12.0025 11.5759L12.5025 7.5759C12.5834 6.83192 12.4845 6.37909 12.2525 6.10324C12.0269 5.83507 11.4921 5.52128 10.1626 5.52121H4.82768ZM4.7896 7.0007C5.23142 7.0007 5.5894 7.35966 5.5894 7.80149C5.58918 8.24312 5.23128 8.60129 4.7896 8.60129H4.78374C4.34206 8.60128 3.98416 8.24311 3.98393 7.80149C3.98393 7.35967 4.34192 7.00072 4.78374 7.0007H4.7896ZM9.41362 7.0007C9.85531 7.00087 10.2134 7.35976 10.2134 7.80149C10.2132 8.24302 9.85517 8.60113 9.41362 8.60129H9.40776C8.96607 8.60129 8.6072 8.24312 8.60698 7.80149C8.60698 7.35966 8.96593 7.0007 9.40776 7.0007H9.41362ZM11.2955 3.99973C12.2487 4.14231 12.9832 4.48594 13.4771 5.07297C14.144 5.86576 14.1883 6.88736 14.0914 7.7634L14.0904 7.77414L13.5904 11.7741L13.5894 11.7732C13.513 12.4752 13.3297 13.3144 12.6382 13.946C11.9498 14.5748 10.9177 14.8552 9.49565 14.8552H5.49467C4.07264 14.8552 3.04059 14.5747 2.3521 13.946C1.65639 13.3106 1.47352 12.4651 1.39799 11.7605L1.39897 11.7595L0.899947 7.77414L0.897994 7.7634C0.801032 6.88734 0.846241 5.86576 1.51323 5.07297C2.00701 4.48617 2.74095 4.14234 3.69389 3.99973V3.92844C3.69389 2.06385 5.16856 0.203342 7.12456 0.0192589V0.0182823C9.38795 -0.201059 11.2954 1.58239 11.2955 3.80149V3.99973Z" fill="black"/>
</svg>
