<svg width="10" height="15" viewBox="0 0 10 15" fill="none" xmlns="http://www.w3.org/2000/svg">
<g clip-path="url(#clip0_1_151)">
<mask id="mask0_1_151" style="mask-type:alpha" maskUnits="userSpaceOnUse" x="0" y="-2" width="10" height="19">
<path d="M9.56445 -1.25H0.0644531V16.25H9.56445V-1.25Z" fill="white"/>
</mask>
<g mask="url(#mask0_1_151)">
<path fill-rule="evenodd" clip-rule="evenodd" d="M0.0644531 -1.25V16.25H9.56445V-1.25H0.0644531Z" fill="#2E42A5"/>
<path d="M-0.993164 14.9997L1.09733 17.1711L9.61211 1.1109L10.7147 -2.11602L8.47932 -2.8418L5.00632 4.07906L2.21094 8.74211L-0.993164 14.9997Z" fill="white"/>
<path d="M-0.707275 16.521L0.35774 17.7811L10.3185 -2.41602H8.82313L-0.707275 16.521Z" fill="#F50100"/>
<path d="M10.622 14.9997L8.53148 17.1711L0.0167474 1.1109L-1.08594 -2.11602L1.14955 -2.8418L4.62251 4.07906L7.41789 8.74211L10.622 14.9997Z" fill="white"/>
<path d="M10.5508 16.0916L9.4858 17.3518L5.24442 8.70435L3.98692 7.73819L-1.19189 -2.10498H0.303507L5.47943 7.50455L6.85426 8.66308L10.5508 16.0916Z" fill="#F50100"/>
<mask id="mask1_1_151" style="mask-type:alpha" maskUnits="userSpaceOnUse" x="-1" y="-3" width="12" height="21">
<path fill-rule="evenodd" clip-rule="evenodd" d="M5.93633 -2.7085H3.6933V4.58317H-0.520752V10.4165H3.6933V17.7082H5.93633V10.4165H10.1667V4.58317H5.93633V-2.7085Z" fill="white"/>
</mask>
<g mask="url(#mask1_1_151)">
<path fill-rule="evenodd" clip-rule="evenodd" d="M5.93633 -2.7085H3.6933V4.58317H-0.520752V10.4165H3.6933V17.7082H5.93633V10.4165H10.1667V4.58317H5.93633V-2.7085Z" fill="#F50100"/>
<path d="M3.6933 -2.70866V-4.16699H3.09955V-2.70866H3.6933ZM5.93633 -2.70866H6.53008V-4.16699H5.93633V-2.70866ZM3.6933 4.58301V6.04134H4.28707V4.58301H3.6933ZM-0.52075 4.58301V3.12467H-1.1145V4.58301H-0.52075ZM-0.52075 10.4163H-1.1145V11.8747H-0.52075V10.4163ZM3.6933 10.4163H4.28707V8.95801H3.6933V10.4163ZM3.6933 17.708H3.09955V19.1663H3.6933V17.708ZM5.93633 17.708V19.1663H6.53008V17.708H5.93633ZM5.93633 10.4163V8.95801H5.34258V10.4163H5.93633ZM10.1667 10.4163V11.8747H10.7605V10.4163H10.1667ZM10.1667 4.58301H10.7605V3.12467H10.1667V4.58301ZM5.93633 4.58301H5.34258V6.04134H5.93633V4.58301ZM3.6933 -1.25033H5.93633V-4.16699H3.6933V-1.25033ZM4.28707 4.58301V-2.70866H3.09955V4.58301H4.28707ZM-0.52075 6.04134H3.6933V3.12467H-0.52075V6.04134ZM0.0729998 10.4163V4.58301H-1.1145V10.4163H0.0729998ZM3.6933 8.95801H-0.52075V11.8747H3.6933V8.95801ZM4.28707 17.708V10.4163H3.09955V17.708H4.28707ZM5.93633 16.2497H3.6933V19.1663H5.93633V16.2497ZM5.34258 10.4163V17.708H6.53008V10.4163H5.34258ZM10.1667 8.95801H5.93633V11.8747H10.1667V8.95801ZM9.57297 4.58301V10.4163H10.7605V4.58301H9.57297ZM5.93633 6.04134H10.1667V3.12467H5.93633V6.04134ZM5.34258 -2.70866V4.58301H6.53008V-2.70866H5.34258Z" fill="white"/>
</g>
</g>
</g>
<defs>
<clipPath id="clip0_1_151">
<rect width="9.5" height="15" fill="white" transform="translate(0.0644531)"/>
</clipPath>
</defs>
</svg>
