<svg width="11" height="15" viewBox="0 0 11 15" fill="none" xmlns="http://www.w3.org/2000/svg">
<path d="M5.31714 7.91309C6.61794 7.91309 7.94995 8.23883 8.98315 8.92871H8.98218C9.91393 9.54862 10.4596 10.4264 10.4597 11.3818C10.4597 12.3371 9.91424 13.2167 8.98315 13.8398C7.94694 14.533 6.61373 14.8613 5.31226 14.8613C4.01107 14.8613 2.67846 14.5326 1.64233 13.8398V13.8408C0.710276 13.2208 0.164795 12.3424 0.164795 11.3867C0.164943 10.4316 0.710369 9.55277 1.64136 8.92969L1.64331 8.92773C2.68224 8.23909 4.0162 7.91309 5.31714 7.91309ZM5.31714 9.11328C4.19845 9.11328 3.10867 9.39528 2.30737 9.92578L2.30835 9.92676C1.62604 10.3834 1.36416 10.9238 1.36401 11.3867C1.36401 11.7916 1.56437 12.2548 2.07104 12.668L2.30737 12.8418L2.30835 12.8428C3.10585 13.3762 4.19328 13.6611 5.31226 13.6611C6.43125 13.6611 7.51867 13.3762 8.31616 12.8428C8.99859 12.386 9.25952 11.8449 9.25952 11.3818C9.25941 10.9192 8.99856 10.381 8.31714 9.92773L8.31616 9.92676C7.52227 9.39675 6.43676 9.11329 5.31714 9.11328ZM5.31226 0C7.27715 8.20703e-05 8.87278 1.59481 8.8728 3.55957V3.5625C8.86462 5.48267 7.3505 7.04792 5.43921 7.1123C5.4126 7.1132 5.38563 7.113 5.35913 7.11035C5.33389 7.10783 5.29181 7.1068 5.25269 7.11035C5.22805 7.11258 5.20319 7.11314 5.17847 7.1123C3.26745 7.04801 1.75171 5.48235 1.75171 3.55957C1.75173 1.59563 3.33977 0 5.31226 0ZM2.9519 3.55957C2.9519 4.83364 3.95106 5.86496 5.20972 5.91211C5.2737 5.90864 5.33971 5.90876 5.40405 5.91211C6.66328 5.86692 7.66603 4.83614 7.67261 3.55957C7.67259 2.2578 6.61466 1.1993 5.31226 1.19922C4.00402 1.19922 2.95193 2.25687 2.9519 3.55957Z" fill="black"/>
</svg>
